<?xml version="1.0" encoding="UTF-8"?>
<svg width="490px" height="123px" viewBox="0 0 490 123" version="1.1" xmlns="http://www.w3.org/2000/svg" xmlns:xlink="http://www.w3.org/1999/xlink">
    <title>Group</title>
    <defs>
        <polygon id="path-1" points="0.000321702128 0.105823529 87.744577 0.105823529 87.744577 14 0.000321702128 14"></polygon>
        <polygon id="path-3" points="0.0663510638 0.105823529 87.8102043 0.105823529 87.8102043 14 0.0663510638 14"></polygon>
    </defs>
    <g id="Page-1" stroke="none" stroke-width="1" fill="none" fill-rule="evenodd">
        <g id="Presentation-portfolio-Copy-6" transform="translate(-1728.000000, -1050.000000)">
            <g id="Group" transform="translate(1728.000000, 1050.000000)">
                <g id="Group-37" transform="translate(0.000000, 7.000000)">
                    <g id="Group-3" transform="translate(0.000000, 91.000000)">
                        <mask id="mask-2" fill="white">
                            <use xlink:href="#path-1"></use>
                        </mask>
                        <g id="Clip-2"></g>
                        <path d="M43.8716451,8.44241176 C56.9946791,8.44241176 67.5046877,7.82476471 74.3682026,7.05311765 C67.5046877,6.28147059 56.9946791,5.66382353 43.8716451,5.66382353 C30.7494153,5.66382353 20.2394068,6.28147059 13.3758919,7.05311765 C20.2394068,7.82476471 30.7494153,8.44241176 43.8716451,8.44241176 Z M14.5018494,12.7659412 C10.6044281,12.3714706 7.51850043,11.9053529 5.3301217,11.3807647 C3.60016851,10.9665294 0.000321702128,10.1051176 0.000321702128,7.05311765 C0.000321702128,4.00111765 3.60016851,3.13888235 5.3301217,2.72464706 C7.51850043,2.20088235 10.6044281,1.73476471 14.5018494,1.34029412 C22.3618366,0.544764706 32.7922238,0.105823529 43.8716451,0.105823529 C54.9526749,0.105823529 65.3830621,0.544764706 73.2430494,1.34029412 C77.1404706,1.73476471 80.2263983,2.20088235 82.4139728,2.72464706 C84.143926,3.13888235 87.744577,4.00111765 87.744577,7.05311765 C87.744577,10.1051176 84.143926,10.9665294 82.4139728,11.3807647 C80.2263983,11.9053529 77.1404706,12.3714706 73.2430494,12.7659412 C65.3830621,13.5614706 54.9526749,14.0004118 43.8716451,14.0004118 C32.7922238,14.0004118 22.3618366,13.5614706 14.5018494,12.7659412 Z" id="Fill-1" fill="#096B72" mask="url(#mask-2)"></path>
                    </g>
                    <path d="M15.1430032,81.8681838 C21.7112681,84.0035645 31.8827275,86.7221442 44.7343087,89.360935 C56.2630865,91.7282791 67.2629034,93.454022 74.8577858,94.1326387 C68.2887182,91.9964355 58.1172588,89.2778558 45.2656776,86.639065 C33.7360971,84.2717209 22.7370829,82.5468006 15.1430032,81.8681838 M80.7847157,100 C73.5028754,100 59.2803305,98.009391 43.6699657,94.8038523 C32.8266698,92.5771669 22.7033707,90.0518902 15.1646754,87.6935943 C11.4258292,86.5239058 8.49527381,85.4479899 6.45488161,84.4946362 C4.84151092,83.7419886 1.48313132,82.1741783 2.06747653,79.1849745 C2.68954732,76 6.77434506,76 9.21446791,76 C16.4971109,76 30.7188531,77.9914316 46.3300206,81.1969702 C57.1733165,83.4228331 67.2966156,85.9481098 74.8353109,88.3064057 C78.5733544,89.4760942 81.5039098,90.5528327 83.5451047,91.5053638 C85.1592781,92.2580114 88.516855,93.8258217 87.9325098,96.8150255 C87.3096363,100 83.2248386,100 80.7847157,100" id="Fill-4" fill="#0B7C84"></path>
                    <path d="M19.676839,65.2874712 C25.7638942,68.6269536 35.2939526,73.2256384 47.4809885,78.2656931 C59.4474847,83.2140661 69.5187942,86.7466479 76.3232091,88.7125288 C70.2361539,85.372235 60.7060955,80.7735503 48.5190596,75.7334956 C36.5517556,70.7851226 26.480446,67.2525408 19.676839,65.2874712 M84.8071181,96 C78.7547999,96 60.6568174,89.6350243 45.4056541,83.3284653 C35.1138049,79.0729781 25.5894013,74.6673926 18.5870663,70.9230506 C15.114173,69.0667008 12.4224586,67.4569989 10.5854363,66.13938 C9.13294452,65.0976172 6.11163244,62.9289008 7.25149109,60.1492442 C7.65298631,59.1683321 8.66359096,58 11.19293,58 C17.2452482,58 35.3432307,64.3641643 50.594394,70.6715347 C60.8854354,74.9270219 70.409839,79.3326074 77.4129819,83.076138 C80.8858751,84.9332992 83.5775895,86.5421898 85.4146118,87.86062 C86.8662957,88.9023828 89.8884157,91.0702878 88.748557,93.8507558 C88.346254,94.8308566 87.3364571,96 84.8071181,96" id="Fill-6" fill="#0C8E97"></path>
                    <path d="M27.6596288,51.9498434 C32.9450142,56.4190935 41.3434667,62.7996853 52.2476369,70.136353 C63.1518071,77.4730208 72.2194685,82.8440611 78.3403609,86.0501566 C73.0557789,81.5809065 64.6565231,75.1995045 53.7523529,67.8628368 C42.8481827,60.526169 33.7805212,55.1551286 27.6596288,51.9498434 M86.4953916,95 C79.6289699,95 52.3295808,76.7640661 49.2390082,74.6858162 C40.0315599,68.490768 31.601776,62.299771 25.5017712,57.2536344 C22.4770751,54.7516322 20.16497,52.6450241 18.6305292,50.9929572 C17.4166339,49.6868602 14.8916352,46.9685255 16.5441717,44.4705745 C16.9072959,43.9212359 17.7757412,43 19.5045981,43 C26.3702165,43 53.6704089,61.2343134 56.7609816,63.3141838 C65.9684298,69.5084218 74.3982138,75.6994188 80.4982185,80.7455554 C83.5237181,83.2475576 85.8358231,85.3541657 87.3702639,87.0062326 C88.5833559,88.3123296 91.1083545,91.0306642 89.455818,93.5286153 C89.0918904,94.0779538 88.2242485,95 86.4953916,95" id="Fill-8" fill="#0E9FAA"></path>
                    <path d="M38.4128432,38.5727227 C42.7379479,44.0496351 49.750543,52.0396955 59.0400176,61.4756543 C68.328687,70.9107952 76.1947094,78.0339708 81.5874031,82.4272773 C77.2622985,76.9503649 70.2497033,68.9603045 60.9602288,59.5243457 C51.6715594,50.0892048 43.805537,42.9660292 38.4128432,38.5727227 M88.7046639,93 C87.5935983,93 85.5260502,93 75.7454524,84.7089834 C69.8270153,79.6900478 62.5294077,72.825302 55.197985,65.3782713 C47.3545059,57.4111097 40.2742807,49.6034222 35.2599933,43.3937469 C32.7745879,40.3138525 30.9123453,37.7679919 29.7255985,35.8264972 C28.7868285,34.291457 26.8344125,31.0978863 28.9438269,28.954391 C29.5508874,28.3385757 30.3849917,28 31.2947773,28 C32.406648,28 34.4741962,28 44.2547939,36.2910166 C50.173231,41.3099522 57.4708387,48.174698 64.8022614,55.6217287 C72.6457404,63.5888903 79.7259657,71.3965778 84.740253,77.607071 C87.2256585,80.6869653 89.087901,83.2320081 90.2746479,85.1735028 C91.2134178,86.708543 93.1658338,89.9029316 91.0556143,92.045609 C90.4493589,92.6614243 89.6144495,93 88.7046639,93" id="Fill-10" fill="#0FB1BD"></path>
                    <path d="M66.8614314,54.2612519 C74.1976979,65.3177229 80.5794225,73.8331596 85.0488194,79.1928613 C81.8445757,72.9872338 76.4749736,63.794405 69.1387071,52.7387481 C61.8024406,41.6822771 55.419905,33.1660262 50.9505081,27.8063245 C54.1547518,34.0119521 59.5243539,43.205595 66.8614314,54.2612519 Z M85.3513208,87.7156256 C83.6660719,86.0416857 81.5761361,83.6602293 79.1390942,80.6372045 C74.2082408,74.5203218 68.230392,66.235296 62.3060689,57.3078877 C56.1116843,47.9725786 50.6398967,38.945027 46.8979629,31.886146 C45.0424049,28.3860158 43.6993961,25.5315248 42.9054314,23.4008337 C42.2777208,21.7163095 40.9712068,18.21048 43.4723173,16.5373543 C43.9986535,16.1864456 44.6190652,16 45.2686727,16 C46.7609046,16 48.2693565,16.9208298 50.6480067,19.2835602 C52.3340666,20.9575002 54.4240024,23.3397707 56.8610442,26.3627955 C61.7918977,32.4796782 67.7697465,40.764704 73.6932586,49.6921123 C79.8884542,59.0274214 85.3602417,68.0557871 89.1013646,75.1130398 C90.9577336,78.6131701 92.3007423,81.4684752 93.0947071,83.5991663 C93.7224177,85.2836905 95.0289317,88.78952 92.5270101,90.4626457 C92.001485,90.8143685 91.3810733,91 90.7314658,91 C89.2392338,91 87.730782,90.0791702 85.3513208,87.7156256 Z" id="Fill-12" fill="#11C3D0"></path>
                    <path d="M66.3078391,19.6630704 C68.2309008,26.3263574 71.69437,36.3208844 76.7259871,48.5149821 C81.7567883,60.7082726 86.3527181,70.2459346 89.6921714,76.3369296 C87.7682938,69.6736426 84.3056405,59.6791156 79.2740234,47.4858251 C74.2432222,35.2917274 69.6472924,25.7548726 66.3078391,19.6630704 M93.6092775,89 C91.7204834,89 89.6750376,88.0894988 83.7500168,76.897921 C80.0670722,69.941627 75.7616006,60.5928456 71.6274667,50.5732961 C67.3799235,40.2776903 63.7826478,30.423613 61.4997769,22.8248021 C60.3673163,19.057684 59.6109827,16.0170296 59.2536213,13.7900146 C58.9696902,12.0287436 58.379799,8.3641375 61.1799465,7.23408277 C61.5642325,7.07910383 61.9713635,7 62.389917,7 C64.2795271,7 66.3249729,7.91050124 72.2499937,19.102079 C75.9329383,26.058373 80.2384099,35.4071544 84.3725438,45.4267039 C88.6200869,55.7223097 92.2165468,65.5771942 94.5002336,73.1751979 C95.6326942,76.9431232 96.3882118,79.9829704 96.7472051,82.2099854 C97.0303203,83.9712564 97.6193956,87.6358625 94.8200639,88.7667244 C94.435778,88.9217034 94.0294628,89 93.6092775,89" id="Fill-14" fill="#12D5E2"></path>
                    <path d="M81.7207766,15.3013982 C82.2781411,22.2416107 83.6747834,32.7638423 86.1619214,45.7578859 C88.6482516,58.7519295 91.2347459,69.0446588 93.2792234,75.6977908 C92.7218589,68.7575783 91.3252166,58.2361577 88.8388864,45.2413031 C86.3517484,32.2472595 83.7652541,21.9545302 81.7207766,15.3013982 M95.2203058,89 C92.804252,89 91.5336225,86.5411633 90.5327898,84.2372204 C89.6175811,82.1311521 88.5925152,79.1524888 87.4866717,75.3839485 C85.2531749,67.7779362 82.8815487,57.6230705 80.8087991,46.7902405 C78.7085851,35.818736 77.1544267,25.4084172 76.4314685,17.4780201 C76.0728165,13.5448546 75.9371104,10.402377 76.0267734,8.13817114 C76.0986653,6.34837808 76.2464881,2.62362975 79.1859799,2.05595638 C79.3814613,2.01865213 79.5809816,2 79.7796942,2 C82.195748,2 83.4663775,4.45802573 84.4672102,6.76196868 C85.3824189,8.86884787 86.4074848,11.8467002 87.5133283,15.6152405 C89.7468251,23.2212528 92.1184513,33.3761186 94.1912009,44.2089485 C96.2914149,55.180453 97.8455733,65.5907718 98.5685315,73.5219799 C98.9271835,77.4551454 99.0628896,80.5968121 98.9732266,82.8610179 C98.9013347,84.650811 98.7535119,88.3755593 95.8140201,88.9432327 C95.6193465,88.9805369 95.4190184,89 95.2203058,89" id="Fill-16" fill="#1DDFED"></path>
                    <path d="M96.600166,44.5 C96.600166,57.8108433 97.2224988,68.4712649 98,75.4330064 C98.7775012,68.4712649 99.399834,57.8108433 99.399834,44.5 C99.399834,31.1899725 98.7775012,20.5295509 98,13.5678093 C97.2224988,20.5295509 96.600166,31.1899725 96.600166,44.5 Z M93.6386913,83.593923 C93.1109531,81.3742255 92.6412992,78.2449496 92.2438359,74.2917507 C91.4422712,66.3192759 91,55.7387993 91,44.5 C91,33.2620165 91.4422712,22.6815399 92.2438359,14.7090651 C92.6412992,10.7558662 93.1109531,7.62659028 93.6386913,5.40689276 C94.056899,3.65218148 94.9248459,0 98,0 C101.075154,0 101.943931,3.65218148 102.361309,5.40689276 C102.889047,7.62659028 103.358701,10.7558662 103.756164,14.7090651 C104.557729,22.6815399 105,33.2620165 105,44.5 C105,55.7387993 104.557729,66.3192759 103.756164,74.2917507 C103.358701,78.2449496 102.889047,81.3742255 102.361309,83.593923 C101.943931,85.3486343 101.075154,89 98,89 C94.9248459,89 94.056899,85.3486343 93.6386913,83.593923 Z" id="Fill-18" fill="#2FE1EE"></path>
                    <path d="M114.127271,15.3050893 C111.991907,21.951543 109.275816,32.2379534 106.638691,45.2303736 C104.002388,58.2236058 102.49546,68.7495939 101.872782,75.6940985 C104.007324,69.048457 106.724237,58.7620466 109.360539,45.7688143 C111.997665,32.7763942 113.504593,22.2504061 114.127271,15.3050893 M99.8147389,89 C99.6033411,89 99.3911209,88.9788847 99.1846585,88.9382783 C96.1963006,88.3470493 96.0753843,84.6153221 96.0169826,82.822144 C95.9437749,80.5538711 96.1074642,77.4085003 96.5039377,73.4737412 C97.3034654,65.5376286 98.9699705,55.1245263 101.196639,44.1543043 C103.392872,33.3278289 105.888517,23.1819166 108.22294,15.5844613 C109.379458,11.8210612 110.445495,8.84623714 111.394729,6.74201408 C112.429508,4.44775311 113.737377,2 116.185314,2 C116.396712,2 116.608109,2.02111532 116.814572,2.06172171 C119.803752,2.65295073 119.924668,6.38467786 119.98307,8.17785598 C120.056278,10.4461289 119.891766,13.5914997 119.495293,17.5262588 C118.695765,25.4623714 117.02926,35.8754737 114.803414,46.8456957 C112.606358,57.671359 110.111536,67.8180834 107.777113,75.4155387 C106.620594,79.1789388 105.553735,82.1537629 104.605324,84.2571738 C103.570545,86.5522469 102.261853,89 99.8147389,89" id="Fill-20" fill="#42E4F0"></path>
                    <path d="M129.709665,19.6647417 C126.371208,25.7538706 121.773936,35.2871756 116.734618,47.4807876 C111.696112,59.6735915 108.222203,69.669137 106.29018,76.3344502 C109.628637,70.2461294 114.22672,60.7120162 119.265227,48.5192124 C124.304545,36.3256004 127.777643,26.330863 129.709665,19.6647417 M102.366926,89 C101.94678,89 101.538801,88.920805 101.153532,88.7624149 C98.3747287,87.6221679 98.9725038,83.9557608 99.2596306,82.193267 C99.6221889,79.9644923 100.382183,76.9235644 101.520145,73.1545269 C103.812293,65.5550354 107.41841,55.6992934 111.673401,45.4047462 C115.812406,35.3889978 120.119307,26.043983 123.800856,19.0917898 C129.721832,7.90993486 131.756863,7 133.63292,7 C134.053066,7 134.461045,7.08000315 134.845503,7.23839324 C137.625117,8.37783209 137.027342,12.0450474 136.741026,13.8075411 C136.377657,16.0363158 135.616852,19.0772437 134.4797,22.8462812 C132.186742,30.4457727 128.580624,40.3007066 124.326444,50.5960619 C120.187439,60.6118103 115.879727,69.9568251 112.198989,76.9090183 C106.277203,88.0908733 104.242983,89 102.366926,89" id="Fill-22" fill="#55E7F1"></path>
                    <path d="M145.051745,27.8071242 C140.582185,33.1657798 134.20034,41.6814726 126.862353,52.7376195 C119.525986,63.7929518 114.154573,72.9863162 110.948255,79.1928758 C115.417815,73.8342202 121.79966,65.3185274 129.136837,54.2623805 C136.475634,43.2062337 141.846237,34.0136838 145.051745,27.8071242 M105.264881,91 C104.615838,91 103.995156,90.8134774 103.469278,90.460795 C100.971153,88.7861642 102.278962,85.2797024 102.906936,83.5952976 C103.701831,81.4637272 105.046102,78.6088727 106.901667,75.1081125 C110.645207,68.0495765 116.118716,59.0215573 122.314194,49.6872828 C128.238225,40.7602628 134.215735,32.4758905 139.14554,26.3613705 C141.582893,23.3379127 143.672631,20.956288 145.358034,19.2824718 C147.736236,16.9203953 149.243375,16 150.735119,16 C151.383352,16 152.004844,16.1865226 152.530722,16.539205 C155.028847,18.2138358 153.721038,21.7202976 153.093064,23.4055169 C152.298169,25.5362728 150.953898,28.3919418 149.097523,31.8918875 C145.354793,38.9504235 139.881284,47.9784427 133.685806,57.3135317 C127.761775,66.2397372 121.783454,74.5241095 116.85446,80.639444 C114.417107,83.6620873 112.327369,86.043712 110.641966,87.7175282 C108.263764,90.0796047 106.756625,91 105.264881,91" id="Fill-24" fill="#68EAF3"></path>
                    <path d="M157.587363,38.5725897 C152.195454,42.9658409 144.328596,50.0889269 135.039891,59.5247669 C125.75038,68.9597891 118.737758,76.9505668 114.412637,82.4274103 C119.804546,78.0341591 127.671404,70.9110731 136.960109,61.4752331 C146.24962,52.0402109 153.262242,44.0494332 157.587363,38.5725897 M107.295349,93 C106.384755,93 105.550647,92.6606107 104.944389,92.0448032 C102.834162,89.9021527 104.786585,86.7078044 105.725359,85.1727834 C106.91211,83.2321309 108.77436,80.6863024 111.259775,77.6064468 C116.274082,71.3968496 123.354334,63.5884425 131.197843,55.622199 C138.529294,48.1744442 145.82693,41.3097847 151.744585,36.2917301 C161.52522,28 163.593581,28 164.704651,28 C165.61444,28 166.449353,28.3393893 167.055611,28.9551968 C169.165838,31.0978473 167.213415,34.2921956 166.274641,35.8272166 C165.08789,37.7678691 163.22564,40.3136976 160.740225,43.3935532 C155.725918,49.6039682 148.645666,57.4115575 140.802157,65.377801 C133.470706,72.8255558 126.17307,79.6902153 120.255415,84.7082699 C110.47478,93 108.406419,93 107.295349,93" id="Fill-26" fill="#7BECF4"></path>
                    <path d="M168.187084,50.9495501 C161.985169,54.1535798 152.793801,59.5228233 141.738602,66.8618436 C130.685845,74.1968093 122.173269,80.5781077 116.815368,85.0480171 C123.018911,81.8431764 132.208651,76.4747439 143.261408,69.1389673 C154.315793,61.8015689 162.829183,55.4194595 168.187084,50.9495501 M108.551031,94 C106.797077,94 105.918066,93.0763377 105.550183,92.5257084 C103.877619,90.0247649 106.437334,87.3056781 107.667136,85.9984405 C109.223312,84.3465527 111.567343,82.2397268 114.633303,79.7371614 C120.816498,74.6906726 129.36163,68.5007564 138.693804,62.3067854 C141.824875,60.2283424 169.48851,42 176.448166,42 C178.202119,42 179.081131,42.9236623 179.449827,43.4742916 C181.122391,45.9752351 178.562677,48.6943219 177.332061,50.0015595 C175.776698,51.6534473 173.432667,53.7602732 170.366708,56.2628386 C164.182698,61.3085164 155.63838,67.4992436 146.306207,73.6932146 C143.175135,75.7716576 115.510687,94 108.551031,94" id="Fill-28" fill="#8EEFF6"></path>
                    <path d="M176.321169,66.3074726 C169.515691,68.2647293 159.443036,71.7874648 147.485439,76.7254978 C135.300294,81.756578 125.769075,86.3526215 119.678519,89.6933436 C126.483997,87.7360869 136.555845,84.2125352 148.514249,79.2753184 C160.700201,74.243422 170.23142,69.6481947 176.321169,66.3074726 M111.206773,97 C108.659359,97 107.648301,95.8181369 107.247266,94.8264493 C106.117593,92.0260541 109.142698,89.854952 110.595942,88.8110273 C112.43489,87.4912258 115.128355,85.8800395 118.602908,84.0231759 C125.6085,80.2776167 135.134877,75.8750134 145.427819,71.6258565 C160.648559,65.3410873 178.72334,59 184.793722,59 C187.34033,59 188.352195,60.1818631 188.752422,61.1735507 C189.882903,63.9739459 186.857798,66.1458642 185.403746,67.1897889 C183.565605,68.5095904 180.871333,70.1199605 177.39678,71.9776403 C170.391189,75.7223833 160.864811,80.1249866 150.571869,84.3749597 C135.351936,90.6589127 117.277156,97 111.206773,97" id="Fill-30" fill="#A1F2F7"></path>
                    <path d="M180.729541,82.7094089 C173.068774,83.3055526 162.056017,84.9001159 150.242155,87.1611 C137.225825,89.65311 126.921737,92.2436694 120.270459,94.2897833 C127.931226,93.6944474 138.943983,92.0998841 150.758656,89.8380922 C163.774986,87.34689 174.079074,84.7555228 180.729541,82.7094089 M114.600292,100 C112.011297,100 107.678196,100 107.062773,96.8141046 C106.49681,93.8737752 109.900694,92.3616057 111.536959,91.6346012 C113.606209,90.7153444 116.574675,89.6813824 120.359651,88.563411 C127.99366,86.3064658 138.240179,83.9073508 149.209151,81.8079233 C164.704203,78.8425526 178.955434,77 186.400519,77 C188.989514,77 193.321804,77 193.937227,80.1858954 C194.50319,83.1262248 191.099306,84.6383943 189.463041,85.3653988 C187.394602,86.2846556 184.426136,87.3178099 180.640349,88.436589 C173.00634,90.6927264 162.760632,93.0918414 151.790849,95.1912689 C136.295797,98.1574474 122.045377,100 114.600292,100" id="Fill-32" fill="#B4F5F8"></path>
                    <g id="Group-36" transform="translate(108.000000, 91.000000)">
                        <mask id="mask-4" fill="white">
                            <use xlink:href="#path-3"></use>
                        </mask>
                        <g id="Clip-35"></g>
                        <path d="M13.4419213,7.05311765 C20.3054362,7.82476471 30.8154447,8.44241176 43.9384787,8.44241176 C57.0607085,8.44241176 67.570717,7.82476471 74.4342319,7.05311765 C67.570717,6.28147059 57.0607085,5.66382353 43.9384787,5.66382353 C30.8154447,5.66382353 20.3054362,6.28147059 13.4419213,7.05311765 M43.9384787,14.0004118 C32.8582532,14.0004118 22.4270617,13.5614706 14.5670745,12.7659412 C10.6696532,12.3714706 7.58452979,11.9053529 5.39615106,11.3807647 C3.66619787,10.9665294 0.0663510638,10.1051176 0.0663510638,7.05311765 C0.0663510638,4.00111765 3.66619787,3.13888235 5.39615106,2.72464706 C7.58452979,2.20088235 10.6696532,1.73476471 14.5670745,1.34029412 C22.4270617,0.544764706 32.8582532,0.105823529 43.9384787,0.105823529 C55.0179,0.105823529 65.4490915,0.544764706 73.3090787,1.34029412 C77.2065,1.73476471 80.2916234,2.20088235 82.4800021,2.72464706 C84.2099553,3.13888235 87.8106064,4.00111765 87.8106064,7.05311765 C87.8106064,10.1051176 84.2099553,10.9665294 82.4800021,11.3807647 C80.2916234,11.9053529 77.2065,12.3714706 73.3090787,12.7659412 C65.4490915,13.5614706 55.0179,14.0004118 43.9384787,14.0004118" id="Fill-34" fill="#C7F7FA" mask="url(#mask-4)"></path>
                    </g>
                </g>
                <path d="M139.59,111.55 C148.096667,111.55 155.21,109.258333 160.93,104.675 C166.65,100.091667 169.51,94.4266667 169.51,87.68 C169.51,82.9866667 168.465,79.0816667 166.375,75.965 C164.285,72.8483333 160.82,70.0433333 155.98,67.55 L155.98,67.55 L139.92,59.3 C137.866667,58.2 136.473333,57.2466667 135.74,56.44 C135.006667,55.6333333 134.64,54.57 134.64,53.25 C134.64,49.73 137.17,47.97 142.23,47.97 C145.97,47.97 151.14,49.4733333 157.74,52.48 L157.74,52.48 L169.07,57.76 L175.12,43.68 L162.58,38.07 C155.54,34.99 148.976667,33.45 142.89,33.45 C135.703333,33.45 129.836667,35.3383333 125.29,39.115 C120.743333,42.8916667 118.47,47.75 118.47,53.69 C118.47,58.0166667 119.515,61.6283333 121.605,64.525 C123.695,67.4216667 127.196667,70.1533333 132.11,72.72 L132.11,72.72 L142.45,78.22 C146.923333,80.5666667 149.856667,82.4 151.25,83.72 C152.643333,85.04 153.34,86.6166667 153.34,88.45 C153.34,91.0166667 152.056667,93.0883333 149.49,94.665 C146.923333,96.2416667 143.623333,97.03 139.59,97.03 C133.136667,97.03 127.911667,95.105 123.915,91.255 C119.918333,87.405 117.92,82.4 117.92,76.24 L117.92,76.24 L117.92,72.5 L103.4,72.5 L103.4,77.34 C103.4,87.6066667 106.865,95.875 113.795,102.145 C120.725,108.415 129.323333,111.55 139.59,111.55 Z M203.83,111 L203.83,53.8 L228.03,111 L250.91,111 L273.68,53.91 L273.68,111 L288.75,111 L288.75,34 L266.09,34 L239.8,100 L212.52,34 L189.31,34 L189.31,111 L203.83,111 Z M353.32,111 C362.12,111 368.958333,108.873333 373.835,104.62 C378.711667,100.366667 381.15,94.5733333 381.15,87.24 C381.15,79.54 377.3,72.83 369.6,67.11 L369.6,67.11 L368.61,66.34 L369.6,65.57 C371.286667,64.3233333 372.698333,62.655 373.835,60.565 C374.971667,58.475 375.54,56.2933333 375.54,54.02 C375.54,48.3733333 373.266667,43.625 368.72,39.775 C364.173333,35.925 357.94,34 350.02,34 L350.02,34 L308,34 L308,111 L353.32,111 Z M349.25,62.93 L323.07,62.93 L323.07,47.97 L349.25,47.97 C356.73,47.97 360.47,50.4266667 360.47,55.34 C360.47,60.4 356.73,62.93 349.25,62.93 L349.25,62.93 Z M352.66,97.03 L323.07,97.03 L323.07,76.9 L352.66,76.9 C361.46,76.9 365.86,80.3466667 365.86,87.24 C365.86,93.7666667 361.46,97.03 352.66,97.03 L352.66,97.03 Z M428.89,111 C440.623333,111 450.358333,107.535 458.095,100.605 C465.831667,93.675 469.7,84.3066667 469.7,72.5 C469.7,60.5466667 465.85,51.1416667 458.15,44.285 C450.45,37.4283333 440.696667,34 428.89,34 L428.89,34 L394.68,34 L394.68,111 L428.89,111 Z M428.89,97.03 L409.75,97.03 L409.75,47.97 L428.89,47.97 C436.516667,47.97 442.53,50.115 446.93,54.405 C451.33,58.695 453.53,64.7266667 453.53,72.5 C453.53,80.2733333 451.33,86.305 446.93,90.595 C442.53,94.885 436.516667,97.03 428.89,97.03 L428.89,97.03 Z" id="SMBD" fill="#020209" fill-rule="nonzero"></path>
            </g>
        </g>
    </g>
</svg>